<svg width="58" height="58" viewBox="0 0 58 58" fill="none" xmlns="http://www.w3.org/2000/svg">
<circle cx="29" cy="35" r="21" fill="#F9E160"/>
<g filter="url(#filter0_i_1_54)">
<circle cx="29" cy="35" r="17.4407" fill="#FE881C" fill-opacity="0.72"/>
</g>
<g filter="url(#filter1_d_1_54)">
<path d="M28.1946 46.7458V44.3838C25.6549 44.1914 23.6691 43.2816 22.2373 41.6544L23.8992 39.2925C25.0753 40.5872 26.5071 41.3658 28.1946 41.6282V36.5631C27.3935 36.3532 26.7287 36.152 26.2003 35.9595C25.6719 35.7496 25.1179 35.4609 24.5384 35.0935C23.9588 34.7086 23.5157 34.2187 23.2089 33.6238C22.9191 33.0115 22.7742 32.2941 22.7742 31.4718C22.7742 30.1247 23.2685 28.9787 24.2571 28.0339C25.2458 27.0891 26.5583 26.5467 28.1946 26.4068V23.9661H30.24V26.433C32.3025 26.6605 34.0156 27.4478 35.3792 28.795L33.6661 31.0782C32.7286 30.1334 31.5866 29.521 30.24 29.2411V33.7551C30.8707 33.93 31.4076 34.0962 31.8508 34.2537C32.294 34.4111 32.7798 34.6386 33.3082 34.936C33.8536 35.216 34.2883 35.5309 34.6121 35.8808C34.936 36.2132 35.2087 36.6506 35.4303 37.193C35.6519 37.7354 35.7627 38.3477 35.7627 39.0301C35.7627 40.4647 35.294 41.6807 34.3565 42.678C33.436 43.6577 32.0639 44.2263 30.24 44.3838V46.7458H28.1946ZM32.1065 40.7884C32.5156 40.351 32.7201 39.8611 32.7201 39.3187C32.7201 38.7764 32.5071 38.339 32.0809 38.0066C31.6548 37.6566 31.0412 37.3592 30.24 37.1143V41.6544C31.0752 41.5145 31.6974 41.2258 32.1065 40.7884ZM25.8423 31.2619C25.8423 32.1017 26.6264 32.749 28.1946 33.2039V29.1099C27.4617 29.1799 26.8821 29.4161 26.456 29.8185C26.0469 30.2034 25.8423 30.6845 25.8423 31.2619Z" fill="#FFEA7C"/>
</g>
<g style="mix-blend-mode:overlay" filter="url(#filter2_f_1_54)">
<circle cx="29.3559" cy="28.9491" r="11.3898" fill="white"/>
</g>
<defs>
<filter id="filter0_i_1_54" x="11.5593" y="17.5593" width="34.8813" height="35.5932" filterUnits="userSpaceOnUse" color-interpolation-filters="sRGB">
<feFlood flood-opacity="0" result="BackgroundImageFix"/>
<feBlend mode="normal" in="SourceGraphic" in2="BackgroundImageFix" result="shape"/>
<feColorMatrix in="SourceAlpha" type="matrix" values="0 0 0 0 0 0 0 0 0 0 0 0 0 0 0 0 0 0 127 0" result="hardAlpha"/>
<feMorphology radius="0.711864" operator="erode" in="SourceAlpha" result="effect1_innerShadow_1_54"/>
<feOffset dy="0.711864"/>
<feComposite in2="hardAlpha" operator="arithmetic" k2="-1" k3="1"/>
<feColorMatrix type="matrix" values="0 0 0 0 0 0 0 0 0 0 0 0 0 0 0 0 0 0 0.25 0"/>
<feBlend mode="normal" in2="shape" result="effect1_innerShadow_1_54"/>
</filter>
<filter id="filter1_d_1_54" x="22.2373" y="23.9661" width="13.5254" height="23.4915" filterUnits="userSpaceOnUse" color-interpolation-filters="sRGB">
<feFlood flood-opacity="0" result="BackgroundImageFix"/>
<feColorMatrix in="SourceAlpha" type="matrix" values="0 0 0 0 0 0 0 0 0 0 0 0 0 0 0 0 0 0 127 0" result="hardAlpha"/>
<feOffset dy="0.711864"/>
<feComposite in2="hardAlpha" operator="out"/>
<feColorMatrix type="matrix" values="0 0 0 0 0 0 0 0 0 0 0 0 0 0 0 0 0 0 0.25 0"/>
<feBlend mode="normal" in2="BackgroundImageFix" result="effect1_dropShadow_1_54"/>
<feBlend mode="normal" in="SourceGraphic" in2="effect1_dropShadow_1_54" result="shape"/>
</filter>
<filter id="filter2_f_1_54" x="0.88135" y="0.47455" width="56.9492" height="56.9492" filterUnits="userSpaceOnUse" color-interpolation-filters="sRGB">
<feFlood flood-opacity="0" result="BackgroundImageFix"/>
<feBlend mode="normal" in="SourceGraphic" in2="BackgroundImageFix" result="shape"/>
<feGaussianBlur stdDeviation="8.54237" result="effect1_foregroundBlur_1_54"/>
</filter>
</defs>
</svg>
